<svg width="21" height="20" viewBox="0 0 21 20" fill="none" xmlns="http://www.w3.org/2000/svg">
<g clip-path="url(#clip0_231_473)">
<path d="M10.7041 8.18188V12.0546H16.1957C15.9546 13.3001 15.2309 14.3547 14.1456 15.0638L17.4573 17.582C19.3868 15.8366 20.5 13.2729 20.5 10.2275C20.5 9.51837 20.4351 8.83648 20.3144 8.18199L10.7041 8.18188Z" fill="#4285F4"/>
<path d="M4.98539 11.9034L4.23848 12.4638L1.59464 14.4819C3.27368 17.7455 6.715 20.0001 10.7039 20.0001C13.4589 20.0001 15.7687 19.1092 17.4571 17.582L14.1454 15.0638C13.2363 15.6638 12.0767 16.0274 10.7039 16.0274C8.0508 16.0274 5.79668 14.2729 4.98956 11.9092L4.98539 11.9034Z" fill="#34A853"/>
<path d="M1.59464 5.51819C0.898939 6.8636 0.500092 8.38181 0.500092 9.99997C0.500092 11.6181 0.898939 13.1364 1.59464 14.4818C1.59464 14.4908 4.98989 11.8999 4.98989 11.8999C4.78581 11.2999 4.66518 10.6636 4.66518 9.99987C4.66518 9.33614 4.78581 8.69981 4.98989 8.09981L1.59464 5.51819Z" fill="#FBBC05"/>
<path d="M10.7041 3.98184C12.2069 3.98184 13.5427 4.49092 14.6095 5.47275L17.5315 2.60914C15.7597 0.990976 13.4592 0 10.7041 0C6.71521 0 3.27368 2.24546 1.59464 5.51822L4.98978 8.10005C5.79679 5.73638 8.05101 3.98184 10.7041 3.98184Z" fill="#EA4335"/>
</g>
<defs>
<clipPath id="clip0_231_473">
<rect width="20" height="20" fill="white" transform="translate(0.5)"/>
</clipPath>
</defs>
</svg>
