<svg class="name" width="548" height="134" viewBox="0 0 548 134" fill="none" xmlns="http://www.w3.org/2000/svg">
<path d="M87.9154 81.743C87.9154 89.7017 84.9944 96.094 79.1524 100.92C73.2257 105.661 66.029 108.032 57.5624 108.032C50.027 108.032 43.3807 105.831 37.6234 101.428C31.866 97.0253 27.8867 91.014 25.6854 83.394L36.8614 78.822C37.6234 81.5313 38.6817 83.9867 40.0364 86.188C41.391 88.3893 42.9574 90.2943 44.7354 91.903C46.598 93.427 48.63 94.6547 50.8314 95.586C53.0327 96.4327 55.361 96.856 57.8164 96.856C63.1504 96.856 67.5107 95.5013 70.8974 92.792C74.284 89.998 75.9774 86.315 75.9774 81.743C75.9774 77.933 74.5804 74.6733 71.7864 71.964C69.1617 69.3393 64.251 66.7993 57.0544 64.344C49.773 61.7193 45.2434 59.9413 43.4654 59.01C33.8134 54.0993 28.9874 46.8603 28.9874 37.293C28.9874 30.6043 31.6544 24.8893 36.9884 20.148C42.407 15.4067 49.0534 13.036 56.9274 13.036C63.87 13.036 69.8814 14.814 74.9614 18.37C80.0414 21.8413 83.428 26.2017 85.1214 31.451L74.1994 36.023C73.1834 32.6363 71.1514 29.8423 68.1034 27.641C65.14 25.355 61.4994 24.212 57.1814 24.212C52.6094 24.212 48.757 25.482 45.6244 28.022C42.4917 30.3927 40.9254 33.483 40.9254 37.293C40.9254 40.4257 42.153 43.135 44.6084 45.421C47.3177 47.707 53.202 50.4163 62.2614 53.549C71.49 56.6817 78.0517 60.534 81.9464 65.106C85.9257 69.5933 87.9154 75.139 87.9154 81.743ZM154.834 106H140.737L121.306 76.663L111.781 86.061V106H100.097V15.068H111.781V71.075L138.705 43.77H153.691V44.278L129.434 68.408L154.834 105.492V106ZM217.264 43.77L178.275 133.432H166.21L180.688 102.063L155.034 43.77H167.734L186.276 88.474H186.53L204.564 43.77H217.264ZM283.206 81.743C283.206 89.7017 280.285 96.094 274.443 100.92C268.517 105.661 261.32 108.032 252.853 108.032C245.318 108.032 238.672 105.831 232.914 101.428C227.157 97.0253 223.178 91.014 220.976 83.394L232.152 78.822C232.914 81.5313 233.973 83.9867 235.327 86.188C236.682 88.3893 238.248 90.2943 240.026 91.903C241.889 93.427 243.921 94.6547 246.122 95.586C248.324 96.4327 250.652 96.856 253.107 96.856C258.441 96.856 262.802 95.5013 266.188 92.792C269.575 89.998 271.268 86.315 271.268 81.743C271.268 77.933 269.871 74.6733 267.077 71.964C264.453 69.3393 259.542 66.7993 252.345 64.344C245.064 61.7193 240.534 59.9413 238.756 59.01C229.104 54.0993 224.278 46.8603 224.278 37.293C224.278 30.6043 226.945 24.8893 232.279 20.148C237.698 15.4067 244.344 13.036 252.218 13.036C259.161 13.036 265.172 14.814 270.252 18.37C275.332 21.8413 278.719 26.2017 280.412 31.451L269.49 36.023C268.474 32.6363 266.442 29.8423 263.394 27.641C260.431 25.355 256.79 24.212 252.472 24.212C247.9 24.212 244.048 25.482 240.915 28.022C237.783 30.3927 236.216 33.483 236.216 37.293C236.216 40.4257 237.444 43.135 239.899 45.421C242.609 47.707 248.493 50.4163 257.552 53.549C266.781 56.6817 273.343 60.534 277.237 65.106C281.217 69.5933 283.206 75.139 283.206 81.743ZM325.867 97.364C331.455 97.364 336.154 95.2473 339.964 91.014C343.774 86.8653 345.679 81.489 345.679 74.885C345.679 68.3657 343.774 62.9893 339.964 58.756C336.154 54.5227 331.455 52.406 325.867 52.406C320.195 52.406 315.453 54.5227 311.643 58.756C307.918 62.9893 306.055 68.3657 306.055 74.885C306.055 81.489 307.918 86.9077 311.643 91.141C315.453 95.2897 320.195 97.364 325.867 97.364ZM327.772 108.032C323.2 108.032 319.009 107.058 315.199 105.111C311.474 103.164 308.595 100.581 306.563 97.364H306.055L306.563 106V133.432H294.879V43.77H306.055V52.406H306.563C308.595 49.1887 311.474 46.6063 315.199 44.659C319.009 42.7117 323.2 41.738 327.772 41.738C335.985 41.738 342.928 44.9553 348.6 51.39C354.442 57.9093 357.363 65.741 357.363 74.885C357.363 84.1137 354.442 91.9453 348.6 98.38C342.928 104.815 335.985 108.032 327.772 108.032ZM376.724 86.95C376.724 89.998 377.994 92.538 380.534 94.57C383.159 96.602 386.207 97.618 389.678 97.618C394.589 97.618 398.949 95.7977 402.759 92.157C406.654 88.5163 408.601 84.2407 408.601 79.33C404.961 76.4513 399.881 75.012 393.361 75.012C388.62 75.012 384.641 76.155 381.423 78.441C378.291 80.727 376.724 83.5633 376.724 86.95ZM391.837 41.738C400.473 41.738 407.289 44.0663 412.284 48.723C417.28 53.295 419.777 59.6027 419.777 67.646V106H408.601V97.364H408.093C403.267 104.476 396.833 108.032 388.789 108.032C381.931 108.032 376.174 106 371.517 101.936C366.945 97.872 364.659 92.792 364.659 86.696C364.659 80.2613 367.072 75.139 371.898 71.329C376.809 67.519 383.328 65.614 391.456 65.614C398.399 65.614 404.114 66.884 408.601 69.424V66.757C408.601 62.693 406.993 59.264 403.775 56.47C400.558 53.5913 396.79 52.152 392.472 52.152C385.953 52.152 380.788 54.9037 376.978 60.407L366.691 53.93C372.364 45.802 380.746 41.738 391.837 41.738ZM444.789 106H433.105V43.77H444.281V53.93H444.789C445.975 50.628 448.388 47.834 452.028 45.548C455.754 43.1773 459.394 41.992 462.95 41.992C466.337 41.992 469.216 42.5 471.586 43.516L468.03 54.819C466.591 54.2263 464.305 53.93 461.172 53.93C456.77 53.93 452.917 55.708 449.615 59.264C446.398 62.82 444.789 66.9687 444.789 71.71V106ZM534.749 106H520.652L501.221 76.663L491.696 86.061V106H480.012V15.068H491.696V71.075L518.62 43.77H533.606V44.278L509.349 68.408L534.749 105.492V106Z" fill="url(#paint0_radial_4_1178)"/>
<path class="star bg" d="M29.2077 52.5837C29.8974 50.4721 32.8191 50.4721 33.5088 52.5837L37.5528 64.9781C38.443 67.7027 39.9427 70.1783 41.9332 72.2086C43.9237 74.2389 46.3502 75.7681 49.0204 76.675L61.1588 80.8022C63.2279 81.5061 63.2279 84.4879 61.1588 85.1918L49.0141 89.319C46.3444 90.2274 43.9187 91.758 41.9293 93.7894C39.9399 95.8208 38.4415 98.2972 37.5528 101.022L33.5088 113.41C33.3601 113.873 33.0721 114.275 32.6859 114.561C32.2997 114.846 31.8351 115 31.3582 115C30.8814 115 30.4167 114.846 30.0305 114.561C29.6443 114.275 29.3564 113.873 29.2077 113.41L25.1636 101.016C24.2741 98.292 22.7753 95.8169 20.786 93.7867C18.7966 91.7564 16.3714 90.2268 13.7023 89.319L1.55762 85.1918C1.10455 85.04 0.710019 84.7461 0.430309 84.352C0.150598 83.9579 0 83.4837 0 82.997C0 82.5104 0.150598 82.0362 0.430309 81.642C0.710019 81.2479 1.10455 80.954 1.55762 80.8022L13.7023 76.675C16.3714 75.7672 18.7966 74.2376 20.786 72.2074C22.7753 70.1771 24.2741 67.702 25.1636 64.9781L29.2077 52.5837Z"/>
<path class="star fg" d="M29.6372 58.6669C30.1889 56.9777 32.5263 56.9777 33.0781 58.6669L36.3133 68.5825C37.0254 70.7622 38.2252 72.7426 39.8176 74.3668C41.41 75.9911 43.3512 77.2145 45.4874 77.94L55.1981 81.2418C56.8534 81.8049 56.8534 84.1903 55.1981 84.7534L45.4824 88.0552C43.3466 88.7819 41.406 90.0064 39.8145 91.6315C38.223 93.2567 37.0243 95.2378 36.3133 97.4179L33.0781 107.328C32.9591 107.698 32.7287 108.02 32.4198 108.249C32.1108 108.477 31.7391 108.6 31.3576 108.6C30.9762 108.6 30.6044 108.477 30.2955 108.249C29.9865 108.02 29.7561 107.698 29.6372 107.328L26.402 97.4127C25.6903 95.2336 24.4913 93.2535 22.8998 91.6293C21.3083 90.0051 19.3681 88.7814 17.2329 88.0552L7.51715 84.7534C7.1547 84.632 6.83907 84.3969 6.6153 84.0816C6.39154 83.7663 6.27106 83.3869 6.27106 82.9976C6.27106 82.6083 6.39154 82.2289 6.6153 81.9136C6.83907 81.5983 7.1547 81.3632 7.51715 81.2418L17.2329 77.94C19.3681 77.2138 21.3083 75.9901 22.8998 74.3659C24.4913 72.7417 25.6903 70.7616 26.402 68.5825L29.6372 58.6669Z"/>
<path class="star bg" d="M522.356 21.1878C522.884 19.6041 525.12 19.6041 525.648 21.1878L528.744 30.4836C529.425 32.527 530.573 34.3837 532.097 35.9064C533.62 37.4291 535.477 38.5761 537.521 39.2563L546.812 42.3517C548.396 42.8796 548.396 45.116 546.812 45.6438L537.516 48.7392C535.473 49.4206 533.616 50.5685 532.094 52.0921C530.571 53.6156 529.424 55.4729 528.744 57.5168L525.648 66.8078C525.535 67.1546 525.314 67.4565 525.018 67.6706C524.723 67.8847 524.367 68 524.002 68C523.637 68 523.282 67.8847 522.986 67.6706C522.69 67.4565 522.47 67.1546 522.356 66.8078L519.261 57.512C518.58 55.469 517.433 53.6127 515.91 52.09C514.387 50.5673 512.531 49.4201 510.488 48.7392L501.192 45.6438C500.845 45.53 500.543 45.3096 500.329 45.014C500.115 44.7184 500 44.3627 500 43.9978C500 43.6328 500.115 43.2771 500.329 42.9815C500.543 42.6859 500.845 42.4655 501.192 42.3517L510.488 39.2563C512.531 38.5754 514.387 37.4282 515.91 35.9055C517.433 34.3828 518.58 32.5265 519.261 30.4836L522.356 21.1878Z"/>
<path class="star fg" d="M522.685 25.7502C523.107 24.4832 524.896 24.4832 525.319 25.7502L527.795 33.1868C528.34 34.8216 529.258 36.3069 530.477 37.5251C531.696 38.7433 533.182 39.6608 534.817 40.205L542.25 42.6813C543.517 43.1037 543.517 44.8927 542.25 45.3151L534.813 47.7914C533.178 48.3365 531.693 49.2548 530.475 50.4737C529.257 51.6925 528.339 53.1783 527.795 54.8134L525.319 62.2462C525.228 62.5236 525.051 62.7652 524.815 62.9365C524.578 63.1078 524.294 63.2 524.002 63.2C523.71 63.2 523.425 63.1078 523.189 62.9365C522.952 62.7652 522.776 62.5236 522.685 62.2462L520.209 54.8096C519.664 53.1752 518.746 51.6901 517.528 50.472C516.31 49.2538 514.825 48.3361 513.19 47.7914L505.754 45.3151C505.476 45.224 505.235 45.0477 505.063 44.8112C504.892 44.5747 504.8 44.2902 504.8 43.9982C504.8 43.7062 504.892 43.4217 505.063 43.1852C505.235 42.9487 505.476 42.7724 505.754 42.6813L513.19 40.205C514.825 39.6603 516.31 38.7426 517.528 37.5244C518.746 36.3063 519.664 34.8212 520.209 33.1868L522.685 25.7502Z"/>
<defs>
<radialGradient id="paint0_radial_4_1178" cx="0" cy="0" r="1" gradientUnits="userSpaceOnUse" gradientTransform="translate(540 123) rotate(-164.055) scale(225.683 209.502)">
<stop stop-color="#999999"/>
<stop offset="0.47" stop-color="white"/>
</radialGradient>
</defs>
</svg>
