<svg width="127" height="127" viewBox="0 0 127 127" fill="none" xmlns="http://www.w3.org/2000/svg">
<rect width="127" height="127" fill="#D9D9D9"/>
<circle cx="63" cy="63" r="54" fill="white" fill-opacity="0.5"/>
<circle cx="63" cy="63" r="50" fill="white"/>
<path d="M24.9041 81.7918C25.256 80.7361 26.7469 80.7361 27.0989 81.7918L29.1625 87.9891C29.6167 89.3514 30.382 90.5891 31.3977 91.6043C32.4134 92.6194 33.6516 93.384 35.0141 93.8375L41.2082 95.9011C42.2639 96.2531 42.2639 97.744 41.2082 98.0959L35.0109 100.159C33.6486 100.614 32.4109 101.379 31.3957 102.395C30.3806 103.41 29.616 104.649 29.1625 106.011L27.0989 112.205C27.023 112.436 26.8761 112.638 26.679 112.78C26.4819 112.923 26.2448 113 26.0015 113C25.7582 113 25.5211 112.923 25.324 112.78C25.1269 112.638 24.98 112.436 24.9041 112.205L22.8405 106.008C22.3866 104.646 21.6218 103.408 20.6067 102.393C19.5915 101.378 18.354 100.613 16.992 100.159L10.7948 98.0959C10.5636 98.02 10.3623 97.8731 10.2196 97.676C10.0768 97.4789 10 97.2418 10 96.9985C10 96.7552 10.0768 96.5181 10.2196 96.321C10.3623 96.1239 10.5636 95.977 10.7948 95.9011L16.992 93.8375C18.354 93.3836 19.5915 92.6188 20.6067 91.6037C21.6218 90.5886 22.3866 89.351 22.8405 87.9891L24.9041 81.7918Z" fill="#FCA311"/>
</svg>